<?xml version="1.0" encoding="UTF-8"?>
<svg version="1.1" xmlns="http://www.w3.org/2000/svg" width="500" height="500">
<path d="M0 0 C1.37401474 -0.00101212 1.37401474 -0.00101212 2.77578735 -0.00204468 C16.81798215 0.0143793 30.49950797 0.50634152 44.3125 3.25 C45.23466309 3.43224121 46.15682617 3.61448242 47.10693359 3.80224609 C53.55413951 5.11359792 59.93836431 6.62269417 66.3125 8.25 C67.04597656 8.43256348 67.77945312 8.61512695 68.53515625 8.80322266 C108.64371712 18.95218794 144.74262368 41.76780946 174.3125 70.25 C174.92270996 70.83297852 175.53291992 71.41595703 176.16162109 72.01660156 C185.04154286 80.53606696 193.0226928 89.33810093 200.3125 99.25 C200.95179443 100.10609863 200.95179443 100.10609863 201.60400391 100.97949219 C208.11757573 109.71847277 213.93839989 118.76989883 219.3125 128.25 C219.87517578 129.23758301 219.87517578 129.23758301 220.44921875 130.24511719 C235.84096698 157.52213176 244.51027752 187.41841602 249.3125 218.25 C249.49135742 219.31025391 249.67021484 220.37050781 249.85449219 221.46289062 C250.42287337 226.1626395 250.51231926 230.78957651 250.55078125 235.51953125 C250.56052979 236.50517059 250.57027832 237.49080994 250.58032227 238.50631714 C250.74210896 259.10034741 250.81473872 279.05602715 246.3125 299.25 C245.93472074 301.08720359 245.55711613 302.9244431 245.1796875 304.76171875 C242.56574786 316.94581993 238.74563119 328.61635972 234.3125 340.25 C234.03680176 340.9817041 233.76110352 341.7134082 233.47705078 342.46728516 C227.03397265 359.39336308 218.53911992 375.31415484 208.3125 390.25 C207.73314697 391.10537354 207.73314697 391.10537354 207.14208984 391.97802734 C200.80711562 401.28470867 193.78276242 409.83718098 186.3125 418.25 C185.85810547 418.76755859 185.40371094 419.28511719 184.93554688 419.81835938 C180.33487265 425.05594579 175.69160714 430.04004331 170.34765625 434.5234375 C168.07988117 436.44734649 165.92498552 438.47192454 163.75 440.5 C127.2239028 473.30687453 78.81951349 493.71375593 30.3125 499.25 C29.61801758 499.3428125 28.92353516 499.435625 28.20800781 499.53125 C19.24418932 500.61636421 10.20299787 500.49292959 1.1875 500.5 C-0.14708755 500.50151062 -0.14708755 500.50151062 -1.50863647 500.50305176 C-15.76687833 500.49215255 -29.62670148 499.77281801 -43.6875 497.25 C-44.48704102 497.11609863 -45.28658203 496.98219727 -46.11035156 496.84423828 C-91.69132973 489.08437303 -134.1915742 466.55441003 -168.14453125 435.5703125 C-169.92216568 433.94832348 -171.71231821 432.33999545 -173.51171875 430.7421875 C-178.99254268 425.85206629 -184.03243597 420.92535204 -188.6875 415.25 C-189.67564148 414.07410128 -190.66393778 412.89833266 -191.65234375 411.72265625 C-198.97224813 402.94333168 -205.64010961 393.94892316 -211.6875 384.25 C-212.09564941 383.5998291 -212.50379883 382.9496582 -212.92431641 382.27978516 C-229.71434366 355.30961652 -240.98458586 325.50385864 -246.6875 294.25 C-246.84831055 293.42274414 -247.00912109 292.59548828 -247.17480469 291.74316406 C-252.3056024 264.48117292 -251.84560811 233.45964933 -246.6875 206.25 C-246.51589355 205.33879395 -246.34428711 204.42758789 -246.16748047 203.48876953 C-239.44215137 169.05676739 -226.10512992 135.8597342 -205.6875 107.25 C-204.95917969 106.22648437 -204.23085937 105.20296875 -203.48046875 104.1484375 C-188.66907537 83.91954348 -171.07789497 64.91432515 -150.6875 50.25 C-150.03749023 49.77159668 -149.38748047 49.29319336 -148.71777344 48.80029297 C-113.39272038 22.80245425 -73.32777911 6.44243579 -29.6875 1.25 C-28.99519287 1.1557373 -28.30288574 1.06147461 -27.58959961 0.96435547 C-18.44296076 -0.14921768 -9.19970528 0.00607921 0 0 Z " fill="#0049AC" transform="translate(249.6875,-0.25)"/>
<path d="M0 0 C4.02400561 0.24927468 6.68655251 2.83967329 9.75 5.25 C10.59220093 5.90947632 10.59220093 5.90947632 11.45141602 6.58227539 C16.67061158 10.68903141 21.81803406 14.88654542 26.95898438 19.09057617 C32.07484262 23.27038065 37.25037093 27.36695296 42.48413086 31.39819336 C45.52985197 33.76312237 48.34123215 36.20571243 51 39 C49.37875342 44.072612 46.32644093 47.90726259 43.1875 52.125 C38.42959451 58.60324045 33.81119196 65.15177617 29.3125 71.8125 C24.87386065 78.36336049 20.25864712 84.6910121 15.37890625 90.91796875 C12.92294486 94.09983006 10.57082222 97.34438646 8.25 100.625 C-0.43655843 112.89153643 -9.43022409 124.93598293 -18.46484375 136.94750977 C-22.29705912 142.04807214 -26.09263398 147.17488201 -29.875 152.3125 C-30.46168457 153.10930176 -31.04836914 153.90610352 -31.65283203 154.72705078 C-34.58525722 158.71210028 -37.51352781 162.70015084 -40.4375 166.69140625 C-46.62686587 175.12936962 -52.88787406 183.50382028 -59.25 191.8125 C-64.03267085 198.06049979 -68.74628722 204.33754061 -73.28320312 210.76611328 C-78.46460986 218.10214313 -83.83286325 225.30120508 -89.17236328 232.52246094 C-90.99446817 234.99250106 -92.80892325 237.46797691 -94.62109375 239.9453125 C-100.46226411 247.92153683 -106.33200663 255.85194087 -112.5378418 263.55004883 C-115.00030843 266.62465947 -116.95164436 269.58607394 -119 273 C-75.77 272.67 -32.54 272.34 12 272 C13.32 269.36 14.64 266.72 16 264 C22.27733599 258.09930417 25.97428168 257.57739797 34.44140625 257.6640625 C39.4053854 258.13267085 42.49516075 259.46976336 46 263 C54.69358816 274.0308091 52 282.372333 52 298 C-12.35 298 -76.7 298 -143 298 C-143.66 299.65 -144.32 301.3 -145 303 C-146.7265625 305.23828125 -146.7265625 305.23828125 -148.625 307.3125 C-149.25664062 308.00988281 -149.88828125 308.70726562 -150.5390625 309.42578125 C-151.02117187 309.94527344 -151.50328125 310.46476562 -152 311 C-157.67235013 307.92653539 -162.77620116 304.36209909 -167.9375 300.5 C-168.76290283 299.88632568 -169.58830566 299.27265137 -170.4387207 298.64038086 C-172.13556982 297.37771161 -173.83112862 296.11330651 -175.52539062 294.84716797 C-177.85062065 293.11150396 -180.18201415 291.38452725 -182.515625 289.66015625 C-189.23235897 284.68182569 -195.88116339 279.71628157 -202 274 C-200.53938926 269.67373449 -198.33620545 266.62121981 -195.5 263.0625 C-191.96930658 258.57435206 -188.54348418 254.04009159 -185.25 249.375 C-179.54852894 241.32025244 -173.68072033 233.39071234 -167.81445312 225.45556641 C-164.87205305 221.47350775 -161.93636598 217.48650892 -159 213.5 C-157.83203671 211.91536056 -156.66406796 210.33072514 -155.49609375 208.74609375 C-153.17344521 205.59415926 -150.85334223 202.44037412 -148.53515625 199.28515625 C-141.94076398 190.31440641 -135.29782277 181.38265197 -128.60791016 172.48291016 C-122.5975069 164.47993602 -116.65982078 156.42450924 -110.73388672 148.35888672 C-107.82628372 144.40320379 -104.91283606 140.45183011 -102 136.5 C-100.83330558 134.91668712 -99.6666389 133.33335379 -98.5 131.75 C-91.5 122.25 -84.5 112.75 -77.5 103.25 C-76.92266113 102.46641113 -76.34532227 101.68282227 -75.75048828 100.87548828 C-74.58241602 99.29036372 -73.41412132 97.70540306 -72.24560547 96.12060547 C-69.34860859 92.19098369 -66.4553886 88.25869648 -63.5703125 84.3203125 C-62.42219946 82.7549703 -61.27376155 81.18986634 -60.125 79.625 C-59.55990723 78.85510742 -58.99481445 78.08521484 -58.41259766 77.29199219 C-55.21767199 72.95621368 -51.98239269 68.65522147 -48.703125 64.3828125 C-47.98237793 63.44356934 -47.26163086 62.50432617 -46.51904297 61.53662109 C-45.12632459 59.72649953 -43.72972805 57.91935286 -42.32861328 56.11572266 C-41.69165527 55.28862793 -41.05469727 54.4615332 -40.3984375 53.609375 C-39.83817871 52.88717773 -39.27791992 52.16498047 -38.70068359 51.42089844 C-37.30105681 49.42855 -36.08948685 47.46322325 -34.89370728 45.34869385 C-34.26878387 44.24362488 -33.64386047 43.13855591 -33 42 C-33.78759925 42.00092179 -34.5751985 42.00184359 -35.38666439 42.00279331 C-54.52255922 42.02484707 -73.65845153 42.04141083 -92.79435635 42.05181217 C-102.0482116 42.05697546 -111.30205838 42.06401878 -120.5559082 42.07543945 C-128.61856198 42.08538529 -136.68120963 42.09185319 -144.74386936 42.09408849 C-149.01568521 42.09539577 -153.28748351 42.0984827 -157.55929375 42.10573006 C-161.57535956 42.11248869 -165.59140051 42.11461728 -169.60747147 42.11310768 C-171.08576785 42.11338408 -172.56406501 42.11539013 -174.04235649 42.11920547 C-176.05198957 42.12414021 -178.06163581 42.12239814 -180.0712738 42.12025452 C-181.19862662 42.12117631 -182.32597944 42.1220981 -183.48749447 42.12304783 C-186 42 -186 42 -187 41 C-187.08748207 39.07332493 -187.10697334 37.14348139 -187.09765625 35.21484375 C-187.09443359 34.04501953 -187.09121094 32.87519531 -187.08789062 31.66992188 C-187.07951172 30.43822266 -187.07113281 29.20652344 -187.0625 27.9375 C-187.05798828 26.70193359 -187.05347656 25.46636719 -187.04882812 24.19335938 C-187.03699608 21.12885883 -187.02051173 18.06445279 -187 15 C-185.65185888 15.00886168 -185.65185888 15.00886168 -184.27648258 15.01790237 C-162.39214461 15.15761895 -140.50845913 15.23091715 -118.62365818 15.23059464 C-108.04013029 15.2320348 -97.45753977 15.25582611 -86.87426758 15.33251953 C-77.64811458 15.39932135 -68.42297236 15.42389688 -59.19659656 15.39809489 C-54.31228615 15.38590178 -49.43006174 15.39462901 -44.54605293 15.4539566 C-39.94446383 15.5091856 -35.34629934 15.50776083 -30.74462318 15.46369362 C-29.06000354 15.45739786 -27.37516006 15.47144861 -25.69092178 15.50784111 C-17.11057975 15.92982395 -17.11057975 15.92982395 -9.43288302 12.78534222 C-6.34220985 9.55708355 -4.19008883 5.88730509 -2 2 C-1.34 1.34 -0.68 0.68 0 0 Z " fill="#FCFDFE" transform="translate(324,97)"/>
<path d="M0 0 C19.15271611 -1.11209319 38.56067401 3.29247192 57 8 C57.73347656 8.18256348 58.46695313 8.36512695 59.22265625 8.55322266 C99.33121712 18.70218794 135.43012368 41.51780946 165 70 C165.61020996 70.58297852 166.22041992 71.16595703 166.84912109 71.76660156 C175.72904286 80.28606696 183.7101928 89.08810093 191 99 C191.42619629 99.57073242 191.85239258 100.14146484 192.29150391 100.72949219 C198.80507573 109.46847277 204.62589989 118.51989883 210 128 C210.56267578 128.98758301 210.56267578 128.98758301 211.13671875 129.99511719 C226.52846698 157.27213176 235.19777752 187.16841602 240 218 C240.17885742 219.06025391 240.35771484 220.12050781 240.54199219 221.21289062 C241.11037203 225.91262844 241.19989915 230.53958304 241.23828125 235.26953125 C241.24789383 236.25585037 241.25750641 237.24216949 241.26741028 238.25837708 C241.29208851 241.44311989 241.30466576 244.62767273 241.3125 247.8125 C241.31578308 248.8915863 241.31906616 249.97067261 241.32244873 251.0824585 C241.34027967 269.14251261 241.33652238 287.81717804 235 305 C234.67 305 234.34 305 234 305 C234.40611554 301.07421641 234.81143399 297.16643928 235.44140625 293.26953125 C242.26119582 250.90091728 239.28980146 207.55687042 225 167 C224.76168457 166.30616211 224.52336914 165.61232422 224.27783203 164.89746094 C220.91422236 155.15061123 216.76000802 145.97386032 211.96728516 136.84912109 C211.08049379 135.15387682 210.21679192 133.4466063 209.35546875 131.73828125 C202.41172946 118.27317123 193.78420459 105.55629559 184 94 C183.21753906 93.03449219 182.43507813 92.06898437 181.62890625 91.07421875 C171.07617901 78.1510819 159.29215805 66.11146439 146 56 C145.01386719 55.24332031 144.02773438 54.48664062 143.01171875 53.70703125 C132.68360538 45.15018924 132.68360538 45.15018924 121 39 C121 38.34 121 37.68 121 37 C120.360625 36.76925781 119.72125 36.53851563 119.0625 36.30078125 C114.89257197 34.52962559 110.98144137 32.34324328 107 30.1875 C100.50490305 26.71795779 94.12868392 23.62485194 87.1796875 21.16845703 C84.1987849 20.07304857 81.3117897 18.85691527 78.40234375 17.5859375 C72.21730738 14.99488942 65.98317273 13.1233512 59.5 11.4375 C58.36925049 11.14012939 57.23850098 10.84275879 56.07348633 10.53637695 C40.55228422 6.5183645 25.36800666 3.66899093 9.37890625 2.39453125 C6.1902215 2.13479204 3.12077264 1.7369381 0 1 C0 0.67 0 0.34 0 0 Z " fill="#001D92" transform="translate(259,0)"/>
<path d="M0 0 C1.25683594 0.01353516 1.25683594 0.01353516 2.5390625 0.02734375 C3.14492187 0.03894531 3.75078125 0.05054688 4.375 0.0625 C4.375 0.3925 4.375 0.7225 4.375 1.0625 C3.39442627 1.18778076 2.41385254 1.31306152 1.40356445 1.44213867 C-24.74226738 4.71915965 -24.74226738 4.71915965 -50.43115234 10.45507812 C-52.59010954 11.0528397 -54.75623124 11.61397653 -56.92578125 12.171875 C-89.73252028 20.8929903 -121.14540091 38.83651472 -146.625 61.0625 C-147.41261719 61.74054687 -148.20023437 62.41859375 -149.01171875 63.1171875 C-160.12080861 72.88459984 -170.60670816 83.32170496 -179.625 95.0625 C-180.34945312 95.99320312 -181.07390625 96.92390625 -181.8203125 97.8828125 C-198.04858823 119.08700553 -209.608345 141.33406256 -219.625 166.0625 C-220.285 165.7325 -220.945 165.4025 -221.625 165.0625 C-213.96357611 144.4893235 -204.50638478 124.89826354 -191.625 107.0625 C-190.89925781 106.04414062 -190.17351562 105.02578125 -189.42578125 103.9765625 C-174.62970871 83.73489773 -157.01481263 64.72640634 -136.625 50.0625 C-135.97499023 49.58409668 -135.32498047 49.10569336 -134.65527344 48.61279297 C-96.65005005 20.64245513 -48.04285284 -0.68632647 0 0 Z " fill="#001991" transform="translate(235.625,-0.0625)"/>
<path d="M0 0 C3 1 3 1 4.17578125 2.78735352 C4.55089844 3.56006592 4.92601562 4.33277832 5.3125 5.12890625 C5.95735352 6.42235962 5.95735352 6.42235962 6.61523438 7.74194336 C7.30069336 9.1381189 7.30069336 9.1381189 8 10.5625 C23.61405426 41.31374405 48.06079344 69.8083627 76 90 C77.06605469 90.77601563 78.13210937 91.55203125 79.23046875 92.3515625 C121.59787301 122.38545931 167.59040227 136.36314647 219 141 C219 141.33 219 141.66 219 142 C161.70868921 145.02122147 101.84345178 116.96702086 60 79.5625 C59.18917969 78.82257813 58.37835938 78.08265625 57.54296875 77.3203125 C55.76533432 75.69832348 53.97518179 74.08999545 52.17578125 72.4921875 C46.69495732 67.60206629 41.65506403 62.67535204 37 57 C36.01185852 55.82410128 35.02356222 54.64833266 34.03515625 53.47265625 C24.45584951 41.98345658 16.2737506 29.96635049 8.625 17.125 C8.21999268 16.44767822 7.81498535 15.77035645 7.39770508 15.07250977 C4.54854468 10.20155617 2.19881553 5.19487124 0 0 Z " fill="#001894" transform="translate(24,358)"/>
<path d="M0 0 C0.33 0 0.66 0 1 0 C1.33 7.92 1.66 15.84 2 24 C3.88285706 23.99111755 5.76571411 23.98223511 7.70562744 23.9730835 C25.42258854 23.89210715 43.13951231 23.83184699 60.85661697 23.79275131 C69.96584754 23.77211651 79.07494006 23.74397844 88.18408203 23.69824219 C96.12261221 23.65840244 104.06104242 23.63257387 111.99966979 23.62364602 C116.20407086 23.61842639 120.40818592 23.60613954 124.61249542 23.57707977 C128.56875405 23.54995572 132.52460853 23.54154879 136.48095131 23.54756927 C137.93382017 23.54646767 139.38670236 23.53849553 140.83949089 23.5231781 C142.82170743 23.50330157 144.8041402 23.51043987 146.78643799 23.51898193 C148.45119612 23.51345118 148.45119612 23.51345118 150.14958572 23.50780869 C153.62578292 24.10805619 154.80222573 25.31364187 157 28 C156.01 29.32 155.02 30.64 154 32 C153.34 31.67 152.68 31.34 152 31 C152.66 29.68 153.32 28.36 154 27 C153.21240075 27.00092179 152.4248015 27.00184359 151.61333561 27.00279331 C132.47744078 27.02484707 113.34154847 27.04141083 94.20564365 27.05181217 C84.9517884 27.05697546 75.69794162 27.06401878 66.4440918 27.07543945 C58.38143802 27.08538529 50.31879037 27.09185319 42.25613064 27.09408849 C37.98431479 27.09539577 33.71251649 27.0984827 29.44070625 27.10573006 C25.42464044 27.11248869 21.40859949 27.11461728 17.39252853 27.11310768 C15.91423215 27.11338408 14.43593499 27.11539013 12.95764351 27.11920547 C10.94801043 27.12414021 8.93836419 27.12239814 6.9287262 27.12025452 C5.80137338 27.12117631 4.67402056 27.1220981 3.51250553 27.12304783 C1 27 1 27 0 26 C-0.08748207 24.07332493 -0.10697334 22.14348139 -0.09765625 20.21484375 C-0.09443359 19.04501953 -0.09121094 17.87519531 -0.08789062 16.66992188 C-0.07951172 15.43822266 -0.07113281 14.20652344 -0.0625 12.9375 C-0.05798828 11.70193359 -0.05347656 10.46636719 -0.04882812 9.19335938 C-0.03699608 6.12885883 -0.02051173 3.06445279 0 0 Z " fill="#BAD4F0" transform="translate(137,112)"/>
<path d="M0 0 C0.66 0 1.32 0 2 0 C1.75765625 0.93457031 1.5153125 1.86914062 1.265625 2.83203125 C-0.91046501 11.32710974 -2.86978657 19.84203549 -4.60449219 28.4387207 C-5.28009211 31.75121405 -5.9785434 34.93331948 -7.015625 38.15625 C-8.55394641 44.16302883 -9.04857155 50.27504488 -9.625 56.4375 C-9.6897049 57.12595001 -9.75440979 57.81440002 -9.82107544 58.52371216 C-12.49984224 87.58474371 -11.13828728 116.83389638 -3 145 C-2.65924201 146.38100163 -2.3262165 147.76392881 -2 149.1484375 C-0.38058599 156.01516326 1.37181627 162.61548175 4.265625 169.08203125 C5 171 5 171 5 174 C4.34 174 3.68 174 3 174 C-2.21701097 158.50258016 -6.95998016 143.08088016 -10 127 C-10.24556641 125.74823975 -10.24556641 125.74823975 -10.49609375 124.47119141 C-18.28246294 83.05382058 -12.40733885 39.8090787 0 0 Z " fill="#001F91" transform="translate(13,167)"/>
<path d="M0 0 C0.33 0.66 0.66 1.32 1 2 C0.01 3.98 -0.98 5.96 -2 8 C-45.23 8 -88.46 8 -133 8 C-131 3 -131 3 -128 1 C-128.66 2.65 -129.32 4.3 -130 6 C-88.09 6 -46.18 6 -3 6 C-2.67 4.68 -2.34 3.36 -2 2 C-1.34 1.34 -0.68 0.68 0 0 Z " fill="#2961AC" transform="translate(338,362)"/>
<path d="M0 0 C0.495 0.99 0.495 0.99 1 2 C-4.81797289 9.82460563 -10.86405688 17.23506957 -17.53515625 24.34765625 C-19.49548868 26.45711064 -21.36054683 28.58945942 -23.1875 30.8125 C-25.80881863 33.91177986 -28.7308914 36.51134864 -31.82421875 39.1328125 C-34.130727 41.11218583 -36.33917026 43.17784194 -38.5625 45.25 C-62.57935654 66.82137115 -91.90050913 81.96944376 -122 93 C-122.33 92.34 -122.66 91.68 -123 91 C-117.26106495 88.29729512 -111.50961505 85.77471188 -105.5625 83.5625 C-90.17634104 77.72011417 -76.06286981 69.08029907 -62.24121094 60.23730469 C-59.51330182 58.50335944 -57.07992433 57.02664144 -54 56 C-54 55.34 -54 54.68 -54 54 C-51.88579325 52.25923449 -49.76820191 50.61674485 -47.5625 49 C-43.16527192 46.05954998 -43.16527192 46.05954998 -40 42 C-38.948125 41.4121875 -38.948125 41.4121875 -37.875 40.8125 C-34.02002731 38.38219113 -31.14227111 35.27350285 -28 32 C-23 27 -23 27 -21.30078125 25.40625 C-15.28058408 19.64249125 -10.29103668 13.1927945 -5.23242188 6.59619141 C-3.51694733 4.37436641 -1.76150075 2.18541331 0 0 Z " fill="#001C97" transform="translate(452,395)"/>
<path d="M0 0 C50.49 0 100.98 0 153 0 C152.10830166 3.56679337 151.5329766 4.95603121 149.4375 7.75 C148.98246094 8.36359375 148.52742187 8.9771875 148.05859375 9.609375 C147.53458984 10.29773438 147.53458984 10.29773438 147 11 C146.67 10.34 146.34 9.68 146 9 C145.01 8.505 145.01 8.505 144 8 C144.66 7.34 145.32 6.68 146 6 C146.99 6 147.98 6 149 6 C149 4.68 149 3.36 149 2 C75.245 1.505 75.245 1.505 0 1 C0 0.67 0 0.34 0 0 Z " fill="#0B4896" transform="translate(138,139)"/>
<path d="M0 0 C0.66 0 1.32 0 2 0 C1.59719881 5.26662557 -1.28587376 8.38187459 -4.5 12.3125 C-5.01175781 12.95767578 -5.52351562 13.60285156 -6.05078125 14.26757812 C-7.3363421 15.87028921 -8.66462995 17.43854673 -10 19 C-10.33 19 -10.66 19 -11 19 C-11.3125 16.1875 -11.3125 16.1875 -11 13 C-9.36935236 11.94228261 -7.69719127 10.94726954 -6 10 C-4.33333333 7.08333333 -4.33333333 7.08333333 -3 4 C-1.4375 1.625 -1.4375 1.625 0 0 Z " fill="#134EA0" transform="translate(190,272)"/>
<path d="M0 0 C4.00735217 0.60110283 6.55469371 2.66602028 9.75 5.0625 C10.73484375 5.79597656 11.7196875 6.52945312 12.734375 7.28515625 C13.48203125 7.85105469 14.2296875 8.41695313 15 9 C12 10 12 10 9.87890625 9.22265625 C9.11449219 8.83980469 8.35007813 8.45695312 7.5625 8.0625 C4.20506404 6.38662249 2.92149169 6 -1 6 C-0.67 4.02 -0.34 2.04 0 0 Z " fill="#0B4DA6" transform="translate(146,391)"/>
<path d="M0 0 C0.66 0 1.32 0 2 0 C2.66 2.97 3.32 5.94 4 9 C2.68 9.33 1.36 9.66 0 10 C0.02320313 10.77085937 0.04640625 11.54171875 0.0703125 12.3359375 C0.08835937 13.33882812 0.10640625 14.34171875 0.125 15.375 C0.14820313 16.37273437 0.17140625 17.37046875 0.1953125 18.3984375 C0 21 0 21 -2 23 C-1.34 15.41 -0.68 7.82 0 0 Z " fill="#0244A0" transform="translate(4,209)"/>
<path d="M0 0 C0.85851562 -0.00773437 1.71703125 -0.01546875 2.6015625 -0.0234375 C3.4265625 -0.02085937 4.2515625 -0.01828125 5.1015625 -0.015625 C5.85002441 -0.01336914 6.59848633 -0.01111328 7.36962891 -0.00878906 C9.375 0.25 9.375 0.25 12.375 2.25 C12.375 2.91 12.375 3.57 12.375 4.25 C11.529375 3.92644531 10.68375 3.60289062 9.8125 3.26953125 C6.1693023 2.18899193 3.16718255 1.94997428 -0.625 1.9375 C-1.800625 1.92074219 -2.97625 1.90398437 -4.1875 1.88671875 C-7.94102485 2.28339808 -10.37829892 3.37423825 -13.625 5.25 C-13.955 4.26 -14.285 3.27 -14.625 2.25 C-9.82783916 -0.23741673 -5.26593469 -0.04787213 0 0 Z " fill="#1C509A" transform="translate(355.625,353.75)"/>
<path d="M0 0 C0.33 0.66 0.66 1.32 1 2 C0.1875 4.375 0.1875 4.375 -1 7 C-1.268125 7.70125 -1.53625 8.4025 -1.8125 9.125 C-3.40659114 11.64198601 -5.44394442 12.53026804 -8 14 C-8.99 15.485 -8.99 15.485 -10 17 C-10.66 16.67 -11.32 16.34 -12 16 C-8.04 10.72 -4.08 5.44 0 0 Z " fill="#20539F" transform="translate(332,197)"/>
<path d="M0 0 C0.33 0.66 0.66 1.32 1 2 C-0.1446875 3.5778125 -0.1446875 3.5778125 -1.3125 5.1875 C-2.80054977 7.26162523 -4.16339097 9.2841582 -5.4375 11.5 C-7.60865805 14.97385288 -10.28068848 17.94627476 -13 21 C-13.66 20.67 -14.32 20.34 -15 20 C-14.61666504 19.50072998 -14.23333008 19.00145996 -13.83837891 18.48706055 C-12.09960959 16.22128768 -10.3622902 13.95440715 -8.625 11.6875 C-8.02171875 10.90181641 -7.4184375 10.11613281 -6.796875 9.30664062 C-6.21679688 8.54931641 -5.63671875 7.79199219 -5.0390625 7.01171875 C-4.50490723 6.31522217 -3.97075195 5.61872559 -3.42041016 4.90112305 C-2.22800288 3.30516646 -1.10508093 1.65762139 0 0 Z " fill="#1F57A1" transform="translate(303,236)"/>
<path d="M0 0 C1.09045549 4.36182198 0.90898166 4.42065938 -1 8 C-0.67 8.66 -0.34 9.32 0 10 C-0.99 11.485 -0.99 11.485 -2 13 C-2.99 12.01 -3.98 11.02 -5 10 C-5 10.66 -5 11.32 -5 12 C-5.99 11.67 -6.98 11.34 -8 11 C-5.36 7.37 -2.72 3.74 0 0 Z " fill="#1450A4" transform="translate(360,158)"/>
<path d="M0 0 C0.66 0.33 1.32 0.66 2 1 C0.14247035 6.05660849 -2.04787811 9.55453417 -5.6953125 13.51953125 C-7.09931829 14.98543334 -7.09931829 14.98543334 -8 17 C-8.99 16.67 -9.98 16.34 -11 16 C-10.28972656 15.01257813 -9.57945312 14.02515625 -8.84765625 13.0078125 C-7.91919608 11.71359529 -6.99081475 10.41932152 -6.0625 9.125 C-5.59392578 8.47402344 -5.12535156 7.82304687 -4.64257812 7.15234375 C-2.12854419 3.69602161 -2.12854419 3.69602161 0 0 Z " fill="#164E9C" transform="translate(375,136)"/>
<path d="M0 0 C2.99332739 0.9977758 3.94766315 1.7522025 6 4 C6.66 3.67 7.32 3.34 8 3 C10.21538462 8.41538462 10.21538462 8.41538462 9.125 11.375 C8.75375 11.91125 8.3825 12.4475 8 13 C7.38125 11.63875 7.38125 11.63875 6.75 10.25 C5.09618073 7.17862135 3.47367984 5.39122384 1 3 C0.67 2.01 0.34 1.02 0 0 Z " fill="#0037A6" transform="translate(21,352)"/>
<path d="M0 0 C0.78375 0.04125 1.5675 0.0825 2.375 0.125 C1.25596454 1.94118856 0.12958716 3.75285526 -1 5.5625 C-1.62648437 6.57183594 -2.25296875 7.58117187 -2.8984375 8.62109375 C-4.625 11.125 -4.625 11.125 -6.625 12.125 C-6.295 9.815 -5.965 7.505 -5.625 5.125 C-4.635 5.125 -3.645 5.125 -2.625 5.125 C-2.625 4.465 -2.625 3.805 -2.625 3.125 C-3.285 2.795 -3.945 2.465 -4.625 2.125 C-2.625 0.125 -2.625 0.125 0 0 Z " fill="#0D49A5" transform="translate(257.625,181.875)"/>
<path d="M0 0 C5.63072482 2.09141208 9.88852244 4.58396855 14 9 C13.67 9.99 13.34 10.98 13 12 C11.58191941 10.75160427 10.16560005 9.50120779 8.75 8.25 C7.96109375 7.55390625 7.1721875 6.8578125 6.359375 6.140625 C4.16988144 4.15413084 2.07098715 2.10898692 0 0 Z " fill="#1B529F" transform="translate(330,99)"/>
<path d="M0 0 C2.64 1.65 5.28 3.3 8 5 C7.34 5.66 6.68 6.32 6 7 C5.01 7 4.02 7 3 7 C3 6.34 3 5.68 3 5 C2.34 5 1.68 5 1 5 C0.67 5.66 0.34 6.32 0 7 C0 4.69 0 2.38 0 0 Z " fill="#134DA4" transform="translate(138,384)"/>
<path d="M0 0 C0.99 0.33 1.98 0.66 3 1 C0.69 3.97 -1.62 6.94 -4 10 C-4.33 9.34 -4.66 8.68 -5 8 C-3.62292893 4.85240898 -2.43840236 2.43840236 0 0 Z " fill="#134D9B" transform="translate(206,251)"/>
<path d="M0 0 C0.99 0.33 1.98 0.66 3 1 C2.54625 1.4125 2.0925 1.825 1.625 2.25 C-0.05950374 4.06408095 -0.99265971 5.75285627 -2 8 C-2.66 8 -3.32 8 -4 8 C-4 8.66 -4 9.32 -4 10 C-4.99 9.67 -5.98 9.34 -7 9 C-4.69 6.03 -2.38 3.06 0 0 Z " fill="#154F9E" transform="translate(341,185)"/>
<path d="M0 0 C1 3 1 3 -0.125 5.375 C-2.17042131 8.23858983 -4.44693946 10.58494274 -7 13 C-7.66 12.67 -8.32 12.34 -9 12 C-6.03 8.04 -3.06 4.08 0 0 Z " fill="#D9EFFA" transform="translate(279,156)"/>
<path d="M0 0 C1.32 0.33 2.64 0.66 4 1 C1.03 4.96 1.03 4.96 -2 9 C-2.66 8.67 -3.32 8.34 -4 8 C-4 7.01 -4 6.02 -4 5 C-3.01 5 -2.02 5 -1 5 C-0.67 3.35 -0.34 1.7 0 0 Z " fill="#1450A2" transform="translate(274,158)"/>
<path d="M0 0 C0.99 0.33 1.98 0.66 3 1 C0.69 4.3 -1.62 7.6 -4 11 C-4.33 9.68 -4.66 8.36 -5 7 C-3.125 4.9375 -3.125 4.9375 -1 3 C-0.67 2.01 -0.34 1.02 0 0 Z " fill="#17509D" transform="translate(214,240)"/>
<path d="M0 0 C0.99 0.33 1.98 0.66 3 1 C1.73058503 4.91402949 0.48832306 6.79072873 -3 9 C-3.36923077 3.46153846 -3.36923077 3.46153846 -1.5 1.125 C-1.005 0.75375 -0.51 0.3825 0 0 Z " fill="#15509E" transform="translate(148,328)"/>
<path d="M0 0 C0 3.41099168 -0.49145406 6.63088314 -1 10 C-2.98 10 -4.96 10 -7 10 C-6.02223933 8.51990357 -5.0427506 7.04094856 -4.0625 5.5625 C-3.51722656 4.73878906 -2.97195313 3.91507813 -2.41015625 3.06640625 C-1 1 -1 1 0 0 Z " fill="#1A51A0" transform="translate(351,171)"/>
<path d="M0 0 C1.32 0.33 2.64 0.66 4 1 C3.38125 1.0825 2.7625 1.165 2.125 1.25 C-0.15354435 1.79278299 -0.15354435 1.79278299 -1.0625 3.875 C-1.5265625 4.926875 -1.5265625 4.926875 -2 6 C-3.625 7.75 -3.625 7.75 -5 9 C-5.66 8.67 -6.32 8.34 -7 8 C-4.69 5.36 -2.38 2.72 0 0 Z " fill="#DEF1FB" transform="translate(324,97)"/>
<path d="M0 0 C1.32 0 2.64 0 4 0 C2.68775452 3.93673644 1.08089673 6.22719294 -2 9 C-2 7.68 -2 6.36 -2 5 C-1.34 5 -0.68 5 0 5 C0 3.35 0 1.7 0 0 Z " fill="#144E9F" transform="translate(140,338)"/>
<path d="M0 0 C0.33 0.66 0.66 1.32 1 2 C0 5 0 5 -2 7 C-2.495 7.70125 -2.99 8.4025 -3.5 9.125 C-3.995 9.74375 -4.49 10.3625 -5 11 C-5.66 11 -6.32 11 -7 11 C-5.22054913 6.95579349 -2.60470327 3.53921513 0 0 Z " fill="#E2F5FD" transform="translate(150,331)"/>
<path d="M0 0 C0 3.32058331 -0.43061972 5.08543662 -2 8 C-4.58203125 9.15234375 -4.58203125 9.15234375 -7 10 C-6.02223933 8.51990357 -5.0427506 7.04094856 -4.0625 5.5625 C-3.51722656 4.73878906 -2.97195312 3.91507812 -2.41015625 3.06640625 C-1 1 -1 1 0 0 Z " fill="#1A54A0" transform="translate(244,316)"/>
<path d="M0 0 C-1.52708963 3.43595166 -3.59927045 6.11912454 -6 9 C-6.8125 7.3125 -6.8125 7.3125 -7 5 C-2.79545455 0 -2.79545455 0 0 0 Z " fill="#E2F5FB" transform="translate(305,233)"/>
<path d="M0 0 C0.33 0.66 0.66 1.32 1 2 C3.02463255 2.65213292 3.02463255 2.65213292 5 3 C3.35 4.65 1.7 6.3 0 8 C-1.09658936 4.71023192 -0.79953138 3.28696233 0 0 Z " fill="#1152A6" transform="translate(242,198)"/>
<path d="M0 0 C0.99 0.33 1.98 0.66 3 1 C1.35 3.64 -0.3 6.28 -2 9 C-2.33 8.34 -2.66 7.68 -3 7 C-3.66 6.67 -4.32 6.34 -5 6 C-4.34 5.34 -3.68 4.68 -3 4 C-2.01 4 -1.02 4 0 4 C0 2.68 0 1.36 0 0 Z " fill="#134FA2" transform="translate(287,141)"/>
<path d="M0 0 C0.33 0 0.66 0 1 0 C1 1.98 1 3.96 1 6 C-0.65 6.66 -2.3 7.32 -4 8 C-2.87548273 5.0280615 -1.77706209 2.66559313 0 0 Z " fill="#154B99" transform="translate(180,397)"/>
<path d="M0 0 C5.875 3.75 5.875 3.75 7 6 C1.25 5.25 1.25 5.25 -1 3 C-0.67 2.01 -0.34 1.02 0 0 Z " fill="#124EA4" transform="translate(129,377)"/>
<path d="M0 0 C0.75 1.75 0.75 1.75 1 4 C-0.8125 6.25 -0.8125 6.25 -3 8 C-3.66 8 -4.32 8 -5 8 C-3.62845496 5.04590299 -2.01136276 2.55991624 0 0 Z " fill="#1952A4" transform="translate(261,293)"/>
<path d="M0 0 C0.33 0.66 0.66 1.32 1 2 C-0.01553817 5.0466145 -1.20762558 7.31143836 -3 10 C-3.66 9.67 -4.32 9.34 -5 9 C-3.7508258 5.54074837 -2.32472205 2.85306797 0 0 Z " fill="#1150A2" transform="translate(332,197)"/>
<path d="M0 0 C0.66 0 1.32 0 2 0 C2.75 1.75 2.75 1.75 3 4 C1.0625 6.25 1.0625 6.25 -1 8 C-1.625 5.125 -1.625 5.125 -2 2 C-1.34 1.34 -0.68 0.68 0 0 Z " fill="#0E4EAA" transform="translate(279,150)"/>
<path d="M0 0 C0.99 0.66 1.98 1.32 3 2 C1.35 3.65 -0.3 5.3 -2 7 C-2 5.02 -2 3.04 -2 1 C-1.34 0.67 -0.68 0.34 0 0 Z " fill="#0D4B9F" transform="translate(237,208)"/>
<path d="M0 0 C0.33 1.32 0.66 2.64 1 4 C-1.4375 6.75 -1.4375 6.75 -4 9 C-4.66 8.67 -5.32 8.34 -6 8 C-4.02 5.36 -2.04 2.72 0 0 Z " fill="#D9EDF9" transform="translate(259,183)"/>
<path d="M0 0 C1.98 0 3.96 0 6 0 C6.33 1.98 6.66 3.96 7 6 C5.83054208 5.19152271 4.66449539 4.37810888 3.5 3.5625 C2.8503125 3.11003906 2.200625 2.65757813 1.53125 2.19140625 C1.0259375 1.79824219 0.520625 1.40507813 0 1 C0 0.67 0 0.34 0 0 Z " fill="#1B54A0" transform="translate(351,116)"/>
<path d="M0 0 C3.83736322 0.95934081 4.59660228 1.23609263 7 4 C6.67 4.99 6.34 5.98 6 7 C4.02 4.69 2.04 2.38 0 0 Z " fill="#0011B8" transform="translate(68,422)"/>
<path d="M0 0 C1.32 0.33 2.64 0.66 4 1 C4.33 2.32 4.66 3.64 5 5 C4.401875 4.649375 3.80375 4.29875 3.1875 3.9375 C0.89186786 2.66695302 0.89186786 2.66695302 -2 4 C-1.34 2.68 -0.68 1.36 0 0 Z " fill="#0D4CA5" transform="translate(264,289)"/>
<path d="M0 0 C1.32 0 2.64 0 4 0 C2.70700306 2.88437779 1.34058637 4.87219421 -1 7 C-0.67 4.69 -0.34 2.38 0 0 Z " fill="#1D519C" transform="translate(252,187)"/>
<path d="M0 0 C1 3 1 3 0.375 5.0625 C-1 7 -1 7 -6 9 C-4.02 6.03 -2.04 3.06 0 0 Z " fill="#D7EBF8" transform="translate(288,144)"/>
<path d="M0 0 C2.64 1.65 5.28 3.3 8 5 C5 6 5 6 1.8125 4.5625 C0.884375 4.046875 -0.04375 3.53125 -1 3 C-0.67 2.01 -0.34 1.02 0 0 Z " fill="#144E9B" transform="translate(153,395)"/>
<path d="M0 0 C0.66 0.66 1.32 1.32 2 2 C0.02 4.97 0.02 4.97 -2 8 C-2.66 7.34 -3.32 6.68 -4 6 C-3.67 5.01 -3.34 4.02 -3 3 C-2.01 3 -1.02 3 0 3 C0 2.01 0 1.02 0 0 Z " fill="#1753A3" transform="translate(161,312)"/>
<path d="M0 0 C0.66 0 1.32 0 2 0 C2 0.66 2 1.32 2 2 C2.66 2.33 3.32 2.66 4 3 C2.68 4.32 1.36 5.64 0 7 C-0.38133299 5.0085944 -0.71325582 3.00720923 -1 1 C-0.67 0.67 -0.34 0.34 0 0 Z " fill="#0E4DA4" transform="translate(163,306)"/>
</svg>
